Coordinates
version=1
nRows=43
nColumns=12
inDegrees=yes

Units are S.I. units (second, meters, Newtons, ...)
Angles are in degrees

endheader
time	SC_y	SC_z	SC_x	AC_y	AC_z	AC_x	GH_y	GH_z	GH_yy	EL_x	PS_y
       0.0              -40.49          19.72          56.56          32.76          -2.64          10.42          -9.44          84.49         -71.06          90.96          116.0
   0.04932              -40.49          19.72          56.56          32.76         -2.639          10.42         -9.416          84.49         -71.04          90.96          116.0
   0.09864              -40.49          19.71          56.56          32.77         -2.639          10.41          -9.39          84.49         -71.02          90.96          116.0
     0.148              -40.49          19.71          56.56          32.77         -2.638          10.41         -9.363          84.49          -71.0          90.96          116.0
    0.1973              -40.49          19.71          56.56          32.78         -2.637           10.4         -9.335          84.49         -70.98          90.96          116.0
    0.2466              -40.49          19.71          56.56          32.78         -2.636           10.4         -9.304          84.49         -70.95          90.96          116.0
    0.2959              -40.49          19.71          56.55          32.79         -2.635           10.4         -9.272          84.49         -70.93          90.96          115.9
    0.3453              -40.49          19.71          56.55           32.8         -2.633          10.39         -9.237          84.49          -70.9          90.96          115.9
    0.3946              -40.49          19.71          56.55           32.8         -2.632          10.38         -9.199          84.49         -70.87          90.96          115.9
    0.4439              -40.49          19.71          56.55          32.81         -2.631          10.38         -9.159          84.49         -70.84          90.96          115.9
    0.4932              -40.49          19.71          56.55          32.82         -2.629          10.37         -9.116          84.49         -70.81          90.96          115.9
    0.5425              -40.49          19.71          56.55          32.83         -2.628          10.37          -9.07          84.49         -70.77          90.96          115.9
    0.5919               -40.5           19.7          56.54          32.84         -2.626          10.36          -9.02          84.49         -70.73          90.96          115.8
    0.6412               -40.5           19.7          56.54          32.85         -2.624          10.35         -8.966          84.49         -70.69          90.96          115.8
    0.6905               -40.5           19.7          56.54          32.86         -2.623          10.34         -8.908          84.49         -70.64          90.96          115.8
    0.7398               -40.5           19.7          56.54          32.87          -2.62          10.33         -8.845          84.49         -70.59          90.96          115.8
    0.7891               -40.5           19.7          56.53          32.89         -2.618          10.32         -8.776          84.48         -70.54          90.95          115.7
    0.8385               -40.5          19.69          56.53           32.9         -2.616          10.31         -8.701          84.48         -70.48          90.95          115.7
    0.8878               -40.5          19.69          56.53          32.92         -2.613           10.3         -8.619          84.48         -70.42          90.95          115.7
    0.9371               -40.5          19.69          56.52          32.93          -2.61          10.29          -8.53          84.48         -70.35          90.95          115.6
    0.9864               -40.5          19.69          56.52          32.95         -2.607          10.27         -8.431          84.48         -70.27          90.95          115.6
     1.036              -40.51          19.68          56.51          32.97         -2.603          10.25         -8.323          84.48         -70.19          90.95          115.5
     1.085              -40.51          19.68          56.51           33.0         -2.599          10.24         -8.203          84.48          -70.1          90.95          115.5
     1.134              -40.51          19.68           56.5          33.02         -2.595          10.22         -8.071          84.48         -69.99          90.95          115.4
     1.184              -40.51          19.67           56.5          33.05          -2.59           10.2         -7.924          84.48         -69.88          90.95          115.4
     1.233              -40.51          19.67          56.49          33.08         -2.584          10.17         -7.759          84.48         -69.75          90.95          115.3
     1.282              -40.52          19.66          56.48          33.12         -2.578          10.14         -7.575          84.48         -69.61          90.95          115.2
     1.332              -40.52          19.66          56.47          33.16         -2.571          10.11         -7.368          84.48         -69.45          90.94          115.1
     1.381              -40.52          19.65          56.46           33.2         -2.564          10.08         -7.134          84.47         -69.27          90.94          115.1
      1.43              -40.53          19.64          56.45          33.25         -2.555          10.04         -6.869          84.47         -69.06          90.94          114.9
      1.48              -40.53          19.63          56.44          33.31         -2.545          9.994         -6.565          84.47         -68.82          90.94          114.8
     1.529              -40.54          19.62          56.42          33.38         -2.533          9.942         -6.217          84.47         -68.55          90.94          114.7
     1.578              -40.54          19.61          56.41          33.45          -2.52          9.883         -5.816          84.47         -68.24          90.93          114.5
     1.628              -40.55           19.6          56.39          33.54         -2.504          9.813         -5.349          84.46         -67.88          90.93          114.3
     1.677              -40.56          19.58          56.36          33.65         -2.486          9.732         -4.803          84.46         -67.45          90.93          114.1
     1.726              -40.56          19.56          56.34          33.77         -2.465          9.637         -4.159          84.46         -66.95          90.92          113.8
     1.776              -40.58          19.54          56.31          33.92         -2.439          9.523         -3.394          84.45         -66.36          90.92          113.5
     1.825              -40.59          19.52          56.27           34.1         -2.409          9.387         -2.476          84.45         -65.65          90.91          113.1
     1.874               -40.6          19.48          56.22          34.31         -2.372          9.223         -1.367          84.44         -64.78           90.9          112.6
     1.924              -40.62          19.45          56.16          34.57         -2.327          9.022       -0.01113          84.43         -63.73          90.89          112.1
     1.973              -40.65           19.4          56.09          34.89         -2.271          8.773          1.662          84.42         -62.43          90.88          111.4
     2.022              -40.68          19.34           56.0          35.29         -2.202          8.464          3.748          84.41         -60.81          90.87          110.5
     2.072              -40.72          19.26          55.89           35.8         -2.115          8.074          6.376          84.39         -58.77          90.85          109.4
